HIERARCHY
ROOT Hips
{
 OFFSET 0.000000 0.000000 0.000000
 CHANNELS 6 Xposition Yposition Zposition Yrotation Xrotation Zrotation
 JOINT Chest
 {
  OFFSET 0.000000 9.585900 0.002600
  CHANNELS 3 Yrotation Xrotation Zrotation
  JOINT Chest2
  {
   OFFSET 0.000000 9.601200 -0.005300
   CHANNELS 3 Yrotation Xrotation Zrotation
   JOINT Chest3
   {
    OFFSET 0.000000 9.561800 0.000000
    CHANNELS 3 Yrotation Xrotation Zrotation
    JOINT Chest4
    {
     OFFSET 0.000000 9.552100 0.000000
     CHANNELS 3 Yrotation Xrotation Zrotation
     JOINT Neck
     {
      OFFSET 0.000000 14.453000 0.000000
      CHANNELS 3 Yrotation Xrotation Zrotation
      JOINT Head
      {
       OFFSET 0.000000 8.936500 -0.011300
       CHANNELS 3 Yrotation Xrotation Zrotation
       End Site
       {
        OFFSET 0.000000 17.073600 -0.006000
       }
      }
     }
     JOINT RightCollar
     {
      OFFSET -2.921100 9.558500 0.000000
      CHANNELS 3 Yrotation Xrotation Zrotation
      JOINT RightShoulder
      {
       OFFSET -13.519700 0.000000 0.000000
       CHANNELS 3 Yrotation Xrotation Zrotation
       JOINT RightElbow
       {
        OFFSET 0.000000 -29.696600 0.000000
        CHANNELS 3 Yrotation Xrotation Zrotation
        JOINT RightWrist
        {
         OFFSET 0.000000 -24.004700 0.000000
         CHANNELS 3 Yrotation Xrotation Zrotation
         End Site
         {
          OFFSET 0.000000 -17.728500 0.000000
         }
        }
       }
      }
     }
     JOINT LeftCollar
     {
      OFFSET 2.921100 9.558500 0.000000
      CHANNELS 3 Yrotation Xrotation Zrotation
      JOINT LeftShoulder
      {
       OFFSET 13.519700 0.000000 0.000000
       CHANNELS 3 Yrotation Xrotation Zrotation
       JOINT LeftElbow
       {
        OFFSET 0.000000 -29.696600 0.000000
        CHANNELS 3 Yrotation Xrotation Zrotation
        JOINT LeftWrist
        {
         OFFSET 0.000000 -24.004700 0.000000
         CHANNELS 3 Yrotation Xrotation Zrotation
         End Site
         {
          OFFSET 0.000000 -17.728500 0.000000
         }
        }
       }
      }
     }
    }
   }
  }
 }
 JOINT RightHip
 {
  OFFSET -7.771700 -0.012900 -0.001300
  CHANNELS 3 Yrotation Xrotation Zrotation
  JOINT RightKnee
  {
   OFFSET 0.000000 -40.869800 0.001200
   CHANNELS 3 Yrotation Xrotation Zrotation
   JOINT RightAnkle
   {
    OFFSET 0.000000 -39.717900 0.002100
    CHANNELS 3 Yrotation Xrotation Zrotation
    JOINT RightToe
    {
     OFFSET 0.000000 -4.965400 11.033500
     CHANNELS 3 Yrotation Xrotation Zrotation
     End Site
     {
      OFFSET 0.000000 -1.423100 5.872300
     }
    }
   }
  }
 }
 JOINT LeftHip
 {
  OFFSET 7.771700 -0.012900 -0.001300
  CHANNELS 3 Yrotation Xrotation Zrotation
  JOINT LeftKnee
  {
   OFFSET 0.000000 -40.869800 0.001200
   CHANNELS 3 Yrotation Xrotation Zrotation
   JOINT LeftAnkle
   {
    OFFSET 0.000000 -39.717900 0.002100
    CHANNELS 3 Yrotation Xrotation Zrotation
    JOINT LeftToe
    {
     OFFSET 0.000000 -4.965400 11.033500
     CHANNELS 3 Yrotation Xrotation Zrotation
     End Site
     {
      OFFSET 0.000000 -1.423100 5.872300
     }
    }
   }
  }
 }
}
MOTION
Frames: 8
Frame Time: 0.008333
0.000000 85.388000 0.000000 0.000000 -5.767877 0.000000 0.000000 11.653817 0.000000 0.000000 -5.885947 0.000000 0.000000 -0.000000 0.000000 0.000000 -0.000000 0.000000 0.000000 12.528835 0.000000 0.000000 0.711642 0.000000 0.000000 -0.000000 0.000000 0.000000 0.000000 -90.000000 0.000000 -2.309062 0.000000 0.000000 2.309062 0.000000 0.000000 -0.000000 0.000000 0.000000 -0.000000 90.000000 0.000000 -2.309062 0.000000 0.000000 2.309062 0.000000 0.000000 8.520406 0.000000 0.000000 1.905762 0.000000 -0.000000 -4.658285 0.000000 0.000000 -0.000000 0.000000 0.000000 8.520406 0.000000 0.000000 1.905762 0.000000 -0.000000 -4.658285 0.000000 0.000000 -0.000000 0.000000
-121.814715 57.943277 102.423641 178.276726 -32.145352 -0.344883 1.089967 19.711143 3.374140 0.081850 2.359505 0.343788 0.108415 4.019422 0.571976 0.799510 16.907872 2.538902 -4.250250 18.090257 -6.702308 -5.615996 -2.311743 -11.026652 4.877367 -5.965812 -0.799635 29.229217 -31.821099 -19.764849 107.117736 -66.369582 -59.324269 23.409784 -21.431580 -57.013058 -8.022725 -2.809490 -2.391470 7.344996 -9.612648 3.947468 115.093940 -77.686491 -142.855346 1.543586 -13.400518 28.525427 8.252013 -42.251932 -6.835819 -10.197594 67.488034 -11.195160 6.130951 21.124627 6.877755 -0.463345 -14.443088 1.969855 -6.773982 -40.802678 1.468332 25.216700 64.968565 21.613950 -16.904643 6.086700 -2.922519 0.125556 -0.215967 0.043226
-121.818767 57.940838 102.424793 178.281366 -32.173651 -0.338519 1.096294 19.678958 3.370231 0.085742 2.344349 0.335960 0.112482 3.987727 0.569780 0.799418 16.903565 2.537118 -4.260689 18.166900 -6.774361 -5.610865 -2.149656 -11.112208 4.886485 -5.975515 -0.797747 29.216061 -31.792676 -19.680280 106.851240 -66.394737 -59.054825 23.363548 -21.420829 -56.930987 -8.058298 -2.788623 -2.365455 7.416987 -9.600495 3.870730 114.144510 -77.649928 -141.918418 1.522790 -13.435525 28.441172 8.313789 -42.223175 -6.890000 -10.203485 67.496351 -11.162770 6.138089 21.134984 6.890327 -0.473110 -14.455087 1.968384 -6.792811 -40.780429 1.451555 25.247490 64.970012 21.645090 -16.889172 6.082265 -2.925425 0.112975 -0.214196 0.037730
-121.824546 57.937571 102.427139 178.280769 -32.203132 -0.320359 1.125977 19.584098 3.346686 0.065731 2.407087 0.344167 0.128885 3.930584 0.559529 0.807980 16.898800 2.536268 -4.245981 18.260928 -6.837155 -5.582532 -1.950699 -11.181086 4.874479 -5.968988 -0.784943 29.199564 -31.778596 -19.595872 106.591458 -66.417356 -58.785101 23.334663 -21.414256 -56.833503 -8.100994 -2.748533 -2.326865 7.483867 -9.605118 3.796574 113.212393 -77.613520 -140.998851 1.500119 -13.466500 28.341664 8.437346 -42.191796 -6.995016 -10.235012 67.509243 -11.114399 6.143296 21.150534 6.894828 -0.475464 -14.471398 1.968709 -6.798387 -40.756252 1.423769 25.289662 64.966491 21.679226 -16.872199 6.078850 -2.921049 0.094401 -0.210292 0.030556
-121.827918 57.937320 102.425077 178.304936 -32.274587 -0.328605 1.147285 19.561655 3.337997 0.028872 2.478317 0.360223 0.165382 3.853320 0.540141 0.828810 16.871008 2.530679 -4.217200 18.387005 -6.872408 -5.525749 -1.714973 -11.254890 4.824083 -5.903363 -0.742008 29.208225 -31.793569 -19.559376 106.386136 -66.448948 -58.537918 23.346362 -21.401907 -56.749192 -8.106947 -2.728328 -2.255049 7.506867 -9.581836 3.707236 112.363936 -77.574012 -140.168571 1.477382 -13.495820 28.224595 8.451562 -42.119883 -7.021372 -10.219142 67.517350 -11.071034 6.144812 21.174459 6.892505 -0.468499 -14.498596 1.972503 -6.830480 -40.686301 1.404519 25.300095 64.964541 21.695963 -16.857837 6.072547 -2.931112 0.093566 -0.206326 0.025832
-121.830724 57.933512 102.429285 178.318737 -32.312727 -0.334132 1.182633 19.522791 3.332706 0.019429 2.469540 0.360972 0.186293 3.838025 0.532987 0.860496 16.842994 2.524056 -4.174399 18.543993 -6.898301 -5.448305 -1.421233 -11.315727 4.746864 -5.835048 -0.685322 29.227448 -31.826618 -19.533080 106.186481 -66.468229 -58.290809 23.362000 -21.397249 -56.653631 -8.119815 -2.639110 -2.176836 7.524947 -9.620366 3.619722 111.651165 -77.523559 -139.489294 1.454353 -13.527682 28.092846 8.449792 -42.083585 -7.029954 -10.189284 67.521375 -11.033446 6.135232 21.175784 6.884323 -0.464022 -14.498451 1.979986 -6.859864 -40.649373 1.393672 25.273593 64.957149 21.690105 -16.858829 6.067126 -2.960398 0.101386 -0.196880 0.026861
-121.833927 57.928852 102.435816 178.320473 -32.345733 -0.328859 1.239686 19.478773 3.321577 0.065111 2.396517 0.342774 0.157689 3.886381 0.546291 0.904428 16.814552 2.516097 -4.119362 18.735509 -6.911945 -5.354686 -1.062797 -11.357660 4.647377 -5.801905 -0.633580 29.221076 -31.852847 -19.468465 106.040159 -66.480355 -58.099212 23.373017 -21.396615 -56.533911 -8.194473 -2.515613 -2.100477 7.593214 -9.684192 3.552142 111.088358 -77.457343 -138.980126 1.430526 -13.573156 27.950522 8.487401 -42.050348 -7.065901 -10.184723 67.523460 -10.999961 6.137561 21.171568 6.878639 -0.465092 -14.491110 1.986166 -6.870528 -40.619506 1.380754 25.280642 64.952038 21.698992 -16.842883 6.060870 -2.965252 0.096891 -0.185069 0.025048
-121.834739 57.924891 102.442736 178.340063 -32.388384 -0.345196 1.296496 19.445047 3.320782 0.089250 2.366530 0.332570 0.154214 3.892397 0.549306 0.958898 16.786546 2.505973 -4.051737 18.957865 -6.909408 -5.245253 -0.646714 -11.373652 4.505327 -5.757918 -0.562032 29.206234 -31.868716 -19.402048 106.237265 -66.479051 -58.205500 23.328442 -21.340427 -56.401848 -8.225301 -2.370304 -2.011562 7.610913 -9.747881 3.487559 110.670343 -77.370914 -138.633277 1.405600 -13.644370 27.807053 8.486272 -42.004062 -7.070070 -10.150059 67.518821 -10.949438 6.120855 21.167555 6.877979 -0.459815 -14.481393 1.986867 -6.893533 -40.578143 1.378337 25.229546 64.942531 21.677312 -16.861278 6.063394 -3.003054 0.125792 -0.177498 0.033393
